<svg width="34" height="34" viewBox="0 0 34 34" fill="none" xmlns="http://www.w3.org/2000/svg">
<path d="M1.08508 9.93234V28.5745H32.9149V9.93234H1.08508ZM6.36593 25.3047H4.19572C3.89609 25.3047 3.65317 25.0618 3.65317 24.7621C3.65317 24.4625 3.89609 24.2196 4.19572 24.2196H6.36593C6.66557 24.2196 6.90849 24.4625 6.90849 24.7621C6.90849 25.0618 6.66557 25.3047 6.36593 25.3047ZM6.36593 21.3983H4.19572C3.89609 21.3983 3.65317 21.1554 3.65317 20.8558C3.65317 20.5561 3.89609 20.3132 4.19572 20.3132H6.36593C6.66557 20.3132 6.90849 20.5561 6.90849 20.8558C6.90849 21.1554 6.66557 21.3983 6.36593 21.3983ZM6.36593 17.4919H4.19572C3.89609 17.4919 3.65317 17.249 3.65317 16.9494C3.65317 16.6497 3.89609 16.4068 4.19572 16.4068H6.36593C6.66557 16.4068 6.90849 16.6497 6.90849 16.9494C6.90849 17.249 6.66557 17.4919 6.36593 17.4919ZM6.36593 13.5855H4.19572C3.89609 13.5855 3.65317 13.3426 3.65317 13.043C3.65317 12.7433 3.89609 12.5004 4.19572 12.5004H6.36593C6.66557 12.5004 6.90849 12.7433 6.90849 13.043C6.90849 13.3426 6.66557 13.5855 6.36593 13.5855ZM12.2255 25.3047H10.0553C9.75566 25.3047 9.51274 25.0618 9.51274 24.7621C9.51274 24.4625 9.75566 24.2196 10.0553 24.2196H12.2255C12.5251 24.2196 12.7681 24.4625 12.7681 24.7621C12.7681 25.0618 12.5251 25.3047 12.2255 25.3047ZM12.2255 21.3983H10.0553C9.75566 21.3983 9.51274 21.1554 9.51274 20.8558C9.51274 20.5561 9.75566 20.3132 10.0553 20.3132H12.2255C12.5251 20.3132 12.7681 20.5561 12.7681 20.8558C12.7681 21.1554 12.5251 21.3983 12.2255 21.3983ZM12.2255 17.4919H10.0553C9.75566 17.4919 9.51274 17.249 9.51274 16.9494C9.51274 16.6497 9.75566 16.4068 10.0553 16.4068H12.2255C12.5251 16.4068 12.7681 16.6497 12.7681 16.9494C12.7681 17.249 12.5251 17.4919 12.2255 17.4919ZM12.2255 13.5855H10.0553C9.75566 13.5855 9.51274 13.3426 9.51274 13.043C9.51274 12.7433 9.75566 12.5004 10.0553 12.5004H12.2255C12.5251 12.5004 12.7681 12.7433 12.7681 13.043C12.7681 13.3426 12.5251 13.5855 12.2255 13.5855ZM18.0851 25.3047H15.9149C15.6152 25.3047 15.3723 25.0618 15.3723 24.7621C15.3723 24.4625 15.6152 24.2196 15.9149 24.2196H18.0851C18.3848 24.2196 18.6276 24.4625 18.6276 24.7621C18.6276 25.0618 18.3848 25.3047 18.0851 25.3047ZM18.0851 21.3983H15.9149C15.6152 21.3983 15.3723 21.1554 15.3723 20.8558C15.3723 20.5561 15.6152 20.3132 15.9149 20.3132H18.0851C18.3848 20.3132 18.6276 20.5561 18.6276 20.8558C18.6276 21.1554 18.3848 21.3983 18.0851 21.3983ZM18.0851 17.4919H15.9149C15.6152 17.4919 15.3723 17.249 15.3723 16.9494C15.3723 16.6497 15.6152 16.4068 15.9149 16.4068H18.0851C18.3848 16.4068 18.6276 16.6497 18.6276 16.9494C18.6276 17.249 18.3848 17.4919 18.0851 17.4919ZM18.0851 13.5855H15.9149C15.6152 13.5855 15.3723 13.3426 15.3723 13.043C15.3723 12.7433 15.6152 12.5004 15.9149 12.5004H18.0851C18.3848 12.5004 18.6276 12.7433 18.6276 13.043C18.6276 13.3426 18.3848 13.5855 18.0851 13.5855ZM23.9447 25.3047H21.7744C21.4747 25.3047 21.2319 25.0618 21.2319 24.7621C21.2319 24.4625 21.4747 24.2196 21.7744 24.2196H23.9447C24.2444 24.2196 24.4872 24.4625 24.4872 24.7621C24.4872 25.0618 24.2444 25.3047 23.9447 25.3047ZM23.9447 21.3983H21.7744C21.4747 21.3983 21.2319 21.1554 21.2319 20.8558C21.2319 20.5561 21.4747 20.3132 21.7744 20.3132H23.9447C24.2444 20.3132 24.4872 20.5561 24.4872 20.8558C24.4872 21.1554 24.2444 21.3983 23.9447 21.3983ZM23.9447 17.4919H21.7744C21.4747 17.4919 21.2319 17.249 21.2319 16.9494C21.2319 16.6497 21.4747 16.4068 21.7744 16.4068H23.9447C24.2444 16.4068 24.4872 16.6497 24.4872 16.9494C24.4872 17.249 24.2444 17.4919 23.9447 17.4919ZM23.9447 13.5855H21.7744C21.4747 13.5855 21.2319 13.3426 21.2319 13.043C21.2319 12.7433 21.4747 12.5004 21.7744 12.5004H23.9447C24.2444 12.5004 24.4872 12.7433 24.4872 13.043C24.4872 13.3426 24.2444 13.5855 23.9447 13.5855ZM29.8042 25.3047H27.634C27.3343 25.3047 27.0915 25.0618 27.0915 24.7621C27.0915 24.4625 27.3343 24.2196 27.634 24.2196H29.8042C30.1039 24.2196 30.3468 24.4625 30.3468 24.7621C30.3468 25.0618 30.1039 25.3047 29.8042 25.3047ZM29.8042 21.3983H27.634C27.3343 21.3983 27.0915 21.1554 27.0915 20.8558C27.0915 20.5561 27.3343 20.3132 27.634 20.3132H29.8042C30.1039 20.3132 30.3468 20.5561 30.3468 20.8558C30.3468 21.1554 30.1039 21.3983 29.8042 21.3983ZM29.8042 17.4919H27.634C27.3343 17.4919 27.0915 17.249 27.0915 16.9494C27.0915 16.6497 27.3343 16.4068 27.634 16.4068H29.8042C30.1039 16.4068 30.3468 16.6497 30.3468 16.9494C30.3468 17.249 30.1039 17.4919 29.8042 17.4919ZM29.8042 13.5855H27.634C27.3343 13.5855 27.0915 13.3426 27.0915 13.043C27.0915 12.7433 27.3343 12.5004 27.634 12.5004H29.8042C30.1039 12.5004 30.3468 12.7433 30.3468 13.043C30.3468 13.3426 30.1039 13.5855 29.8042 13.5855Z" fill="#E7F4FE"/>
<path d="M29.4787 1.62767V3.79788C29.4787 4.09708 29.7221 4.34043 30.0213 4.34043C30.3205 4.34043 30.5638 4.09708 30.5638 3.79788V1.62767C30.5638 1.32847 30.3205 1.08511 30.0213 1.08511C29.7221 1.08511 29.4787 1.32847 29.4787 1.62767Z" fill="#98D9D5"/>
<path d="M20.7979 1.62767V3.79788C20.7979 4.09708 21.0412 4.34043 21.3404 4.34043C21.6396 4.34043 21.883 4.09708 21.883 3.79788V1.62767C21.883 1.32847 21.6396 1.08511 21.3404 1.08511C21.0412 1.08511 20.7979 1.32847 20.7979 1.62767Z" fill="#98D9D5"/>
<path d="M12.117 1.62767V3.79788C12.117 4.09708 12.3604 4.34043 12.6596 4.34043C12.9588 4.34043 13.2021 4.09708 13.2021 3.79788V1.62767C13.2021 1.32847 12.9588 1.08511 12.6596 1.08511C12.3604 1.08511 12.117 1.32847 12.117 1.62767Z" fill="#98D9D5"/>
<path d="M3.43616 1.62767V3.79788C3.43616 4.09708 3.67951 4.34043 3.97871 4.34043C4.27791 4.34043 4.52126 4.09708 4.52126 3.79788V1.62767C4.52126 1.32847 4.27791 1.08511 3.97871 1.08511C3.67951 1.08511 3.43616 1.32847 3.43616 1.62767Z" fill="#98D9D5"/>
<path d="M1.08508 3.25531V8.84723H32.9149V3.25531H31.6489V3.79786C31.6489 4.69539 30.9187 5.42552 30.0213 5.42552C29.1238 5.42552 28.3936 4.69539 28.3936 3.79786V3.25531H22.9681V3.79786C22.9681 4.69539 22.2379 5.42552 21.3404 5.42552C20.4429 5.42552 19.7127 4.69539 19.7127 3.79786V3.25531H14.2872V3.79786C14.2872 4.69539 13.5571 5.42552 12.6596 5.42552C11.762 5.42552 11.0319 4.69539 11.0319 3.79786V3.25531H5.60636V3.79786C5.60636 4.69539 4.87623 5.42552 3.9787 5.42552C3.08117 5.42552 2.35104 4.69539 2.35104 3.79786V3.25531H1.08508Z" fill="#F2484B"/>
<path d="M33.4574 31.8298H0.542542V32.9149H33.4574V31.8298Z" fill="#98D9D5"/>
<path d="M33.4574 29.6596H0.542542V30.7447H33.4574V29.6596Z" fill="#C1E8E6"/>
<path d="M0 31.2872C0 31.5869 0.242919 31.8298 0.542553 31.8298H33.4574C33.7572 31.8298 34 31.5869 34 31.2872C34 30.9876 33.7572 30.7447 33.4574 30.7447H0.542553C0.242919 30.7447 0 30.9876 0 31.2872Z" fill="#082947"/>
<path d="M0 33.4574C0 33.7571 0.242919 34 0.542553 34H33.4574C33.7572 34 34 33.7571 34 33.4574C34 33.1578 33.7572 32.9149 33.4574 32.9149H0.542553C0.242919 32.9149 0 33.1578 0 33.4574Z" fill="#082947"/>
<path d="M33.4574 2.17021H31.6489V1.62766C31.6489 0.730132 30.9187 0 30.0213 0C29.1238 0 28.3936 0.730132 28.3936 1.62766V2.17021H22.9681V1.62766C22.9681 0.730132 22.2379 0 21.3404 0C20.443 0 19.7128 0.730132 19.7128 1.62766V2.17021H14.2872V1.62766C14.2872 0.730132 13.5571 0 12.6596 0C11.762 0 11.0319 0.730132 11.0319 1.62766V2.17021H5.60638V1.62766C5.60638 0.730132 4.87625 0 3.97872 0C3.0812 0 2.35106 0.730132 2.35106 1.62766V2.17021H0.542553C0.242919 2.17021 0 2.41313 0 2.71277V29.117C0 29.4167 0.242919 29.6596 0.542553 29.6596H33.4574C33.7572 29.6596 34 29.4167 34 29.117V2.71277C34 2.41313 33.7572 2.17021 33.4574 2.17021ZM4.52128 1.62766V3.79787C4.52128 4.09707 4.27792 4.34043 3.97872 4.34043C3.67952 4.34043 3.43617 4.09707 3.43617 3.79787V1.62766C3.43617 1.32846 3.67952 1.08511 3.97872 1.08511C4.27792 1.08511 4.52128 1.32846 4.52128 1.62766ZM3.97872 5.42553C4.87625 5.42553 5.60638 4.6954 5.60638 3.79787V3.25532H11.0319V3.79787C11.0319 4.6954 11.762 5.42553 12.6596 5.42553C13.5571 5.42553 14.2872 4.6954 14.2872 3.79787V3.25532H19.7128V3.79787C19.7128 4.6954 20.443 5.42553 21.3404 5.42553C22.2379 5.42553 22.9681 4.6954 22.9681 3.79787V3.25532H28.3936V3.79787C28.3936 4.6954 29.1238 5.42553 30.0213 5.42553C30.9187 5.42553 31.6489 4.6954 31.6489 3.79787V3.25532H32.9149V8.84723H1.08511V3.25532H2.35106V3.79787C2.35106 4.6954 3.0812 5.42553 3.97872 5.42553ZM13.2021 1.62766V3.79787C13.2021 4.09707 12.9588 4.34043 12.6596 4.34043C12.3604 4.34043 12.117 4.09707 12.117 3.79787V1.62766C12.117 1.32846 12.3604 1.08511 12.6596 1.08511C12.9588 1.08511 13.2021 1.32846 13.2021 1.62766ZM21.883 1.62766V3.79787C21.883 4.09707 21.6396 4.34043 21.3404 4.34043C21.0412 4.34043 20.7979 4.09707 20.7979 3.79787V1.62766C20.7979 1.32846 21.0412 1.08511 21.3404 1.08511C21.6396 1.08511 21.883 1.32846 21.883 1.62766ZM30.5638 1.62766V3.79787C30.5638 4.09707 30.3205 4.34043 30.0213 4.34043C29.7221 4.34043 29.4787 4.09707 29.4787 3.79787V1.62766C29.4787 1.32846 29.7221 1.08511 30.0213 1.08511C30.3205 1.08511 30.5638 1.32846 30.5638 1.62766ZM1.08511 28.5745V9.93234H32.9149V28.5745H1.08511Z" fill="#082947"/>
<path d="M29.8043 16.4068H27.634C27.3343 16.4068 27.0915 16.6497 27.0915 16.9494C27.0915 17.249 27.3343 17.4919 27.634 17.4919H29.8043C30.104 17.4919 30.3468 17.249 30.3468 16.9494C30.3468 16.6497 30.104 16.4068 29.8043 16.4068Z" fill="#F2484B"/>
<path d="M23.9447 16.4068H21.7745C21.4748 16.4068 21.2319 16.6497 21.2319 16.9494C21.2319 17.249 21.4748 17.4919 21.7745 17.4919H23.9447C24.2444 17.4919 24.4873 17.249 24.4873 16.9494C24.4873 16.6497 24.2444 16.4068 23.9447 16.4068Z" fill="#082947"/>
<path d="M18.0851 16.4068H15.9149C15.6152 16.4068 15.3723 16.6497 15.3723 16.9494C15.3723 17.249 15.6152 17.4919 15.9149 17.4919H18.0851C18.3848 17.4919 18.6276 17.249 18.6276 16.9494C18.6276 16.6497 18.3848 16.4068 18.0851 16.4068Z" fill="#082947"/>
<path d="M12.2255 16.4068H10.0553C9.75568 16.4068 9.51276 16.6497 9.51276 16.9494C9.51276 17.249 9.75568 17.4919 10.0553 17.4919H12.2255C12.5252 17.4919 12.7681 17.249 12.7681 16.9494C12.7681 16.6497 12.5252 16.4068 12.2255 16.4068Z" fill="#082947"/>
<path d="M6.36596 16.4068H4.19575C3.89612 16.4068 3.6532 16.6497 3.6532 16.9494C3.6532 17.249 3.89612 17.4919 4.19575 17.4919H6.36596C6.6656 17.4919 6.90852 17.249 6.90852 16.9494C6.90852 16.6497 6.6656 16.4068 6.36596 16.4068Z" fill="#082947"/>
<path d="M23.9447 20.3132H21.7745C21.4748 20.3132 21.2319 20.5561 21.2319 20.8558C21.2319 21.1554 21.4748 21.3983 21.7745 21.3983H23.9447C24.2444 21.3983 24.4873 21.1554 24.4873 20.8558C24.4873 20.5561 24.2444 20.3132 23.9447 20.3132Z" fill="#082947"/>
<path d="M18.0851 20.3132H15.9149C15.6152 20.3132 15.3723 20.5561 15.3723 20.8558C15.3723 21.1554 15.6152 21.3983 15.9149 21.3983H18.0851C18.3848 21.3983 18.6276 21.1554 18.6276 20.8558C18.6276 20.5561 18.3848 20.3132 18.0851 20.3132Z" fill="#082947"/>
<path d="M12.2255 20.3132H10.0553C9.75568 20.3132 9.51276 20.5561 9.51276 20.8558C9.51276 21.1554 9.75568 21.3983 10.0553 21.3983H12.2255C12.5252 21.3983 12.7681 21.1554 12.7681 20.8558C12.7681 20.5561 12.5252 20.3132 12.2255 20.3132Z" fill="#082947"/>
<path d="M6.36596 20.3132H4.19575C3.89612 20.3132 3.6532 20.5561 3.6532 20.8558C3.6532 21.1554 3.89612 21.3983 4.19575 21.3983H6.36596C6.6656 21.3983 6.90852 21.1554 6.90852 20.8558C6.90852 20.5561 6.6656 20.3132 6.36596 20.3132Z" fill="#082947"/>
<path d="M23.9447 24.2196H21.7745C21.4748 24.2196 21.2319 24.4625 21.2319 24.7621C21.2319 25.0618 21.4748 25.3047 21.7745 25.3047H23.9447C24.2444 25.3047 24.4873 25.0618 24.4873 24.7621C24.4873 24.4625 24.2444 24.2196 23.9447 24.2196Z" fill="#082947"/>
<path d="M29.8043 20.3132H27.634C27.3343 20.3132 27.0915 20.5561 27.0915 20.8558C27.0915 21.1554 27.3343 21.3983 27.634 21.3983H29.8043C30.104 21.3983 30.3468 21.1554 30.3468 20.8558C30.3468 20.5561 30.104 20.3132 29.8043 20.3132Z" fill="#F2484B"/>
<path d="M29.8043 24.2196H27.634C27.3343 24.2196 27.0915 24.4625 27.0915 24.7621C27.0915 25.0618 27.3343 25.3047 27.634 25.3047H29.8043C30.104 25.3047 30.3468 25.0618 30.3468 24.7621C30.3468 24.4625 30.104 24.2196 29.8043 24.2196Z" fill="#F2484B"/>
<path d="M18.0851 24.2196H15.9149C15.6152 24.2196 15.3723 24.4625 15.3723 24.7621C15.3723 25.0618 15.6152 25.3047 15.9149 25.3047H18.0851C18.3848 25.3047 18.6276 25.0618 18.6276 24.7621C18.6276 24.4625 18.3848 24.2196 18.0851 24.2196Z" fill="#082947"/>
<path d="M12.2255 24.2196H10.0553C9.75568 24.2196 9.51276 24.4625 9.51276 24.7621C9.51276 25.0618 9.75568 25.3047 10.0553 25.3047H12.2255C12.5252 25.3047 12.7681 25.0618 12.7681 24.7621C12.7681 24.4625 12.5252 24.2196 12.2255 24.2196Z" fill="#082947"/>
<path d="M6.36596 24.2196H4.19575C3.89612 24.2196 3.6532 24.4625 3.6532 24.7621C3.6532 25.0618 3.89612 25.3047 4.19575 25.3047H6.36596C6.6656 25.3047 6.90852 25.0618 6.90852 24.7621C6.90852 24.4625 6.6656 24.2196 6.36596 24.2196Z" fill="#082947"/>
<path d="M29.8043 12.5004H27.634C27.3343 12.5004 27.0915 12.7433 27.0915 13.043C27.0915 13.3426 27.3343 13.5855 27.634 13.5855H29.8043C30.104 13.5855 30.3468 13.3426 30.3468 13.043C30.3468 12.7433 30.104 12.5004 29.8043 12.5004Z" fill="#F2484B"/>
<path d="M23.9447 12.5004H21.7745C21.4748 12.5004 21.2319 12.7433 21.2319 13.043C21.2319 13.3426 21.4748 13.5855 21.7745 13.5855H23.9447C24.2444 13.5855 24.4873 13.3426 24.4873 13.043C24.4873 12.7433 24.2444 12.5004 23.9447 12.5004Z" fill="#082947"/>
<path d="M18.0851 12.5004H15.9149C15.6152 12.5004 15.3723 12.7433 15.3723 13.043C15.3723 13.3426 15.6152 13.5855 15.9149 13.5855H18.0851C18.3848 13.5855 18.6276 13.3426 18.6276 13.043C18.6276 12.7433 18.3848 12.5004 18.0851 12.5004Z" fill="#082947"/>
<path d="M12.2255 12.5004H10.0553C9.75568 12.5004 9.51276 12.7433 9.51276 13.043C9.51276 13.3426 9.75568 13.5855 10.0553 13.5855H12.2255C12.5252 13.5855 12.7681 13.3426 12.7681 13.043C12.7681 12.7433 12.5252 12.5004 12.2255 12.5004Z" fill="#082947"/>
<path d="M6.36596 12.5004H4.19575C3.89612 12.5004 3.6532 12.7433 3.6532 13.043C3.6532 13.3426 3.89612 13.5855 4.19575 13.5855H6.36596C6.6656 13.5855 6.90852 13.3426 6.90852 13.043C6.90852 12.7433 6.6656 12.5004 6.36596 12.5004Z" fill="#082947"/>
</svg>
