<svg width="34" height="34" viewBox="0 0 34 34" fill="none" xmlns="http://www.w3.org/2000/svg">
<g clip-path="url(#clip0_8_518)">
<path d="M6.77869 23.2464C6.77869 28.8915 11.3549 33.4678 17 33.4678C22.6451 33.4678 27.2213 28.8915 27.2213 23.2464C27.2213 17.5679 24.3821 13.0251 26.287 9.05018C26.287 9.05018 23.2464 9.61802 21.5428 14.1608C21.5428 14.1608 15.8643 8.48234 18.2368 0.532379C18.2368 0.532379 12.4572 2.8038 13.0616 10.1859C13.5799 16.516 12.4571 17.5679 12.4571 17.5679C12.4571 12.4573 8.46142 10.1859 8.46142 10.1859C9.61795 16.4322 6.77869 18.1357 6.77869 23.2464Z" fill="#FFB446"/>
<path d="M24.3781 25.6671C24.3781 29.9187 21.0953 33.5481 16.8445 33.4662C12.8441 33.3891 9.86769 30.3453 10.1858 26.3695C10.3277 24.595 11.6764 21.7202 13.8768 18.81L15.3437 19.6973C15.2965 16.1009 17 11.3215 17 11.3215C18.1191 16.3573 24.3781 17.6625 24.3781 25.6671Z" fill="#FFDC64"/>
<path d="M14.1607 22.1106C13.5929 25.5177 12.4572 26.7582 12.4572 28.9248C12.4572 31.1963 14.4911 33.4676 17 33.4676C19.527 33.4676 21.5498 31.4029 21.5427 28.8759C21.5238 22.0889 17.5678 17.5678 17.5678 17.5678C18.1357 20.9749 16.4322 23.8142 16.4322 23.8142C15.7226 22.7499 14.1607 22.1106 14.1607 22.1106Z" fill="#E7F4FE"/>
<path d="M26.8625 16.8209C26.2409 13.965 25.704 11.4985 26.7671 9.28019C26.8537 9.09943 26.8315 8.88527 26.7094 8.7261C26.5874 8.56692 26.3864 8.48996 26.1893 8.52681C26.0612 8.55072 23.206 9.12879 21.3787 13.1636C20.8837 12.5486 20.1317 11.4976 19.4828 10.1032C18.0489 7.02192 17.8014 3.85314 18.7469 0.684571C18.8052 0.489469 18.747 0.278165 18.597 0.140372C18.447 0.00257902 18.2317 -0.0376632 18.042 0.036911C17.9783 0.0619462 16.4663 0.667637 15.0304 2.23071C13.7092 3.66893 12.2031 6.22411 12.531 10.2293C12.7052 12.3575 12.6864 13.8484 12.6041 14.8652C12.184 13.4498 11.4886 12.3689 10.8693 11.6209C9.82033 10.3536 8.76878 9.74816 8.72449 9.72306C8.54446 9.62079 8.32147 9.63208 8.15273 9.75214C7.98406 9.87214 7.90026 10.0791 7.93798 10.2828C8.5853 13.7795 7.94382 15.7657 7.26462 17.8684C6.76398 19.4183 6.24628 21.0211 6.24628 23.2463C6.24641 29.176 11.0705 34 17 34C22.9296 34 27.7537 29.176 27.7537 23.2464C27.7537 20.915 27.2803 18.74 26.8625 16.8209ZM20.9665 32.0856C21.6595 31.2178 22.0752 30.1193 22.0752 28.9248C22.0752 25.301 20.9638 22.3175 20.0315 20.4529C19.0189 18.4276 18.0109 17.2657 17.9686 17.2173C17.7749 16.996 17.4387 16.9736 17.2174 17.1672C16.9961 17.3608 16.9737 17.6971 17.1672 17.9184C17.2056 17.9623 21.0104 22.3863 21.0104 28.9248C21.0104 31.1361 19.2114 32.9352 17 32.9352C14.7047 32.9352 12.9896 30.8179 12.9896 28.9248C12.9896 27.9864 13.1937 27.3498 13.3934 26.8508C13.5026 26.5778 13.3698 26.268 13.0968 26.1587C12.8237 26.0495 12.514 26.1823 12.4048 26.4552C12.1814 27.0138 11.9249 27.7992 11.9249 28.9248C11.9249 30.0549 12.3702 31.207 13.1552 32.1389C9.72005 30.648 7.3111 27.2235 7.3111 23.2464C7.3111 21.1889 7.78073 19.7349 8.27791 18.1956C8.88393 16.3193 9.50815 14.3869 9.17918 11.3955C10.2833 12.3904 11.9249 14.402 11.9249 17.5679C11.9249 17.7801 12.0508 17.972 12.2455 18.0563C12.4401 18.1407 12.6663 18.1014 12.8212 17.9564C13.04 17.7514 14.1056 16.4112 13.5923 10.1424C13.3557 7.25427 14.0927 4.84658 15.7824 2.98628C16.3534 2.35761 16.9439 1.89941 17.422 1.58504C16.6452 5.32643 17.5555 8.48538 18.5174 10.5525C19.667 13.0228 21.1056 14.4766 21.1663 14.5373C21.2942 14.6653 21.4785 14.7195 21.6554 14.6812C21.8324 14.6429 21.9776 14.5173 22.0412 14.3479C23.0173 11.7447 24.4237 10.54 25.37 9.99658C24.7693 12.2105 25.2829 14.5708 25.822 17.0475C26.2483 19.0053 26.6889 21.0297 26.6889 23.2465C26.689 27.1765 24.3369 30.5673 20.9665 32.0856Z" fill="black"/>
<path d="M16.4103 22.9019C15.3123 21.6203 14.2883 21.5783 14.1608 21.5783C13.8669 21.5783 13.6285 21.8166 13.6285 22.1106C13.6285 22.8992 13.5356 23.5718 13.3363 24.2272C13.2507 24.5085 13.4095 24.8059 13.6908 24.8915C13.7424 24.9071 13.7945 24.9147 13.8459 24.9147C14.074 24.9147 14.2851 24.7668 14.3549 24.5371C14.5202 23.9937 14.6238 23.4265 14.6682 22.8179C14.6787 22.8234 14.6895 22.8291 14.7003 22.8351C15.0148 23.0061 15.4937 23.366 15.9893 24.1095C16.0778 24.2422 16.2211 24.3282 16.3798 24.3439C16.5388 24.3598 16.696 24.3034 16.8087 24.1906C16.8879 24.1114 17.5938 23.3672 17.9771 21.6593C18.0414 21.3724 17.8611 21.0876 17.5742 21.0233C17.2875 20.9589 17.0026 21.1393 16.9382 21.4261C16.7892 22.09 16.5848 22.5748 16.4103 22.9019Z" fill="black"/>
</g>
<defs>
<clipPath id="clip0_8_518">
<rect width="34" height="34" fill="white"/>
</clipPath>
</defs>
</svg>
