<svg width="33" height="47" viewBox="0 0 33 47" fill="none" xmlns="http://www.w3.org/2000/svg">
<path d="M10.153 27.1362C10.7654 26.5682 14.4316 27.2825 14.4316 27.2825V30.4872H11.1167C11.1167 30.4872 9.60164 27.6477 10.153 27.1362Z" fill="#32373B"/>
<path d="M20.8571 2.13731C20.8571 2.13731 22.7908 0.28401 25.7604 0.978998C28.73 1.67399 32.5973 3.14119 30.5946 17.1954C28.5918 31.2496 32.252 33.0257 32.252 33.0257C32.252 33.0257 26.8653 31.9446 22.8599 23.4503C18.8544 14.956 20.8571 2.13731 20.8571 2.13731Z" fill="#32373B"/>
<path d="M25.2226 3.85107C25.5542 2.93311 24.738 1.69895 23.3996 1.09449C22.0612 0.490022 20.7075 0.744157 20.3759 1.66211C20.0443 2.58007 20.8605 3.81423 22.1989 4.4187C23.5373 5.02316 24.891 4.76903 25.2226 3.85107Z" fill="#EF717A"/>
<path d="M21.9843 27.1362C21.3719 26.5682 17.7058 27.2825 17.7058 27.2825V30.4872H21.0207C21.0208 30.4872 22.5359 27.6477 21.9843 27.1362Z" fill="#32373B"/>
<path d="M18.4201 25.5359H13.724V33.4124H18.4201V25.5359Z" fill="#DDC29B"/>
<path d="M27.8316 16.9983C27.8316 15.9021 27.2268 14.9653 26.3706 14.5781C26.4013 14.1965 26.4177 13.8185 26.4177 13.4465C26.4177 7.05568 21.7845 2.75571 16.0691 2.75571C10.3537 2.75571 5.72033 7.05568 5.72033 13.4465C5.72033 13.8185 5.73663 14.1965 5.76743 14.5781C4.91122 14.9653 4.3064 15.9021 4.3064 16.9983C4.3064 18.416 6.013 20.3474 7.29613 20.4126C9.12608 24.5302 12.3707 27.9109 16.0689 27.9109C19.7672 27.9109 23.0118 24.5302 24.8418 20.4126C26.125 20.3474 27.8316 18.4161 27.8316 16.9983Z" fill="#E8D8BF"/>
<path d="M30.8313 35.5393C30.4273 33.4565 28.9757 31.8274 27.1145 31.3681L20.303 30.4592C20.2492 31.2904 20.0035 31.2896 19.616 31.9472C18.8575 33.2347 17.554 35.3919 16.072 35.3919C14.5829 35.3919 13.2743 33.2265 12.5174 31.9289C12.1341 31.2719 11.8918 31.2748 11.8402 30.4465L4.97728 31.3681C3.11612 31.8274 1.66448 33.4565 1.26048 35.5393L0 42.0376C1.30965 42.9974 2.79471 43.8388 4.4179 44.5394C5.04413 44.8096 6.19563 44.5375 6.86109 44.7641C9.79503 45.7632 13.1225 45.394 16.1234 45.3822C19.5891 45.3684 24.7571 45.5287 27.6796 44.5394C29.3007 43.8397 30.784 42.9994 32.0924 42.0411L30.8313 35.5393Z" fill="#F2484B"/>
<path d="M26.3705 14.5781C26.4011 14.1964 26.4176 13.8185 26.4176 13.4465C26.4176 7.05566 21.7843 4.76776 16.0689 4.76776C10.3535 4.76776 5.72033 7.05566 5.72033 13.4465C5.72033 13.8185 5.73663 14.1964 5.76743 14.5781C4.91122 14.9652 4.3064 15.9021 4.3064 16.9983C4.3064 18.4159 6.013 20.3474 7.29613 20.4126C9.12608 24.5301 12.3706 27.9109 16.0689 27.9109C19.7672 27.9109 23.0118 24.5301 24.8417 20.4126C26.1249 20.3474 27.8315 18.4159 27.8315 16.9983C27.8315 15.9021 27.2268 14.9652 26.3705 14.5781ZM16.0689 27.5294C11.7316 27.5294 8.21546 19.651 8.21546 14.5711C8.21546 9.49121 11.7316 7.57783 16.0689 7.57783C20.4063 7.57783 23.9224 9.49121 23.9224 14.5711C23.9224 19.651 20.4063 27.5294 16.0689 27.5294Z" fill="#DDCDB6"/>
<path d="M18.7078 1.44207C14.5244 0.420438 3.58227 1.87605 5.43597 14.4756C5.78417 16.8429 8.29574 23.7316 9.39324 26.23C9.39324 26.23 6.70295 16.6935 8.42641 15.2132C8.46246 15.1823 8.49837 15.1531 8.53442 15.1227C8.50776 16.5675 8.60969 17.5042 8.60969 17.5042H23.9993C24.1047 16.5757 24.1218 15.6748 24.0842 14.8288C24.2345 14.991 24.3721 15.1539 24.4943 15.3162C25.4255 16.5527 24.9291 20.5158 24.9291 20.5158C24.9291 20.5158 32.3211 4.7669 18.7078 1.44207Z" fill="#292D30"/>
<path d="M18.7078 4.66249C24.4288 6.05973 26.4394 9.65127 26.8486 13.346C27.2992 8.72277 26.1046 3.24857 18.7078 1.44207C14.6441 0.449621 4.20422 1.79589 5.30918 13.4224C6.25033 4.76782 15.0551 3.77043 18.7078 4.66249Z" fill="black"/>
<path d="M21.6134 33.2011L19.1539 33.1954C19.8063 32.127 20.2304 30.8376 20.3032 29.7125L18.4202 28.1265C18.4202 29.8996 17.6531 30.9386 16.0674 30.9386C14.4816 30.9386 13.7242 29.8996 13.7242 28.1265L11.8404 29.6998C11.9105 30.8241 12.3314 32.112 12.9807 33.1809L10.5172 33.175C7.17964 35.7612 5.35618 40.0449 4.41821 44.5393C5.04445 44.8096 5.69057 45.0595 6.35617 45.2861C9.15392 46.2387 12.281 46.792 15.586 46.8415C15.7469 46.8439 15.9078 46.8462 16.0696 46.8462C16.2268 46.8462 16.3888 46.8427 16.5529 46.8373C20.0056 46.7264 24.8902 45.4836 27.6801 44.5392C26.7448 40.0598 24.9301 35.7897 21.6134 33.2011Z" fill="#EA8894"/>
<path d="M24.2122 29.3197C22.6584 28.9336 22.4208 27.4428 21.9545 27.1111L16.4659 34.9311H15.6723L10.1837 27.1111C9.71739 27.4428 9.47983 28.9336 7.92598 29.3197C6.37214 29.7058 5.1792 31.3182 5.1792 31.3182L10.517 33.1751L13.1686 34.0974V37.6596C13.1686 37.8729 13.3231 38.0457 13.5139 38.0457C13.7046 38.0457 13.8592 37.8729 13.8592 37.6596V34.3636L14.4389 34.5871C14.7987 34.9283 15.1836 35.1924 15.5857 35.3153V46.8415C15.7466 46.8439 15.9075 46.8462 16.0692 46.8462C16.2264 46.8462 16.3884 46.8427 16.5525 46.8373V35.3165C16.9561 35.1941 17.3424 34.9284 17.7036 34.5853L18.325 34.3457V37.6594C18.325 37.8727 18.4796 38.0455 18.6703 38.0455C18.8611 38.0455 19.0156 37.8727 19.0156 37.6594V34.0795L21.6134 33.2008L27.0678 31.3562C27.0677 31.3565 25.7661 29.7058 24.2122 29.3197Z" fill="#2C556B"/>
</svg>
