<svg width="17" height="17" viewBox="0 0 17 17" fill="none" xmlns="http://www.w3.org/2000/svg">
<path d="M15.4557 6.99694C15.4562 6.98102 15.4596 6.96634 15.4569 6.94917C15.4163 6.69459 15.4323 6.42293 15.4339 6.16604C15.4351 5.9683 15.4642 5.76665 15.3599 5.58839C15.3385 5.55192 15.3087 5.52497 15.2751 5.50629C15.3818 5.35729 15.3193 5.1157 15.0737 5.09498C13.9412 4.99944 12.8209 5.29014 11.6936 5.07603C11.6989 5.05459 11.7073 5.03556 11.7076 5.01056C11.7153 4.27244 11.7521 3.56492 11.5223 2.85357C11.4697 2.6907 11.2704 2.58494 11.1142 2.6875C10.0523 3.38444 9.33907 4.48219 8.31808 5.22244C8.28917 4.78409 8.2567 4.3452 8.21641 3.90471C8.30794 3.80713 8.33027 3.63261 8.22753 3.52391C7.81746 3.08956 4.79026 1.16812 3.12286 0.613592C5.07508 0.503203 7.01449 0.777441 8.95355 1.03914C9.93451 1.1715 10.9147 1.28367 11.9034 1.33748C12.9727 1.39574 12.6498 3.0434 12.6747 3.88221C12.6867 4.28943 13.2956 4.28979 13.3066 3.88221C13.3328 2.89387 13.2907 1.90713 13.133 0.930705C13.1103 0.789628 12.9506 0.689112 12.817 0.690091C9.34076 0.715175 5.79452 -0.592592 2.35512 0.329926C2.27889 0.350296 2.24162 0.416209 2.23601 0.484613C2.18371 0.499112 2.13781 0.519393 2.10472 0.550882C2.09413 0.529088 2.08835 0.505071 2.07634 0.48399C2.06772 0.468779 2.04806 0.467979 2.03578 0.478742C1.53694 0.914783 1.60294 1.71668 1.5614 2.33988C1.48402 3.50043 1.54379 4.67228 1.59778 5.83247C1.7104 8.24991 1.9382 10.6614 1.95412 13.0827C1.95519 13.2449 2.07207 13.329 2.19705 13.3419C2.19349 13.3925 2.20933 13.444 2.25834 13.486C3.01274 14.1345 3.8826 14.6221 4.74418 15.1126C5.65033 15.6285 6.5531 16.2205 7.49421 16.6647C7.50631 16.6703 7.51858 16.6708 7.53086 16.6743C7.68581 16.8655 7.69337 16.8395 7.98878 16.97C8.17798 17.0536 8.40774 16.9581 8.40997 16.7283C8.42215 15.4746 8.44333 14.2313 8.4588 12.992C8.46556 12.9924 8.4701 12.9954 8.47722 12.9954C9.98299 12.9847 11.4852 13.0314 12.9907 13.0482C13.1627 13.0502 13.3014 12.9046 13.3035 12.7356C13.3197 11.3755 13.5269 9.93225 13.3398 8.58375C13.3035 8.32187 12.854 8.3241 12.8153 8.58375C12.6298 9.82614 12.6668 11.1547 12.6761 12.4217C11.2777 12.4149 9.87011 12.3467 8.47713 12.4757C8.47232 12.4762 8.46921 12.4786 8.46458 12.4794C8.48362 10.7164 8.48487 8.96037 8.42118 7.19601C9.21774 7.96927 10.2136 8.63045 11.1135 9.24484C11.2975 9.37044 11.527 9.20107 11.5346 9.00315C11.555 8.46304 11.6721 7.93467 11.7055 7.39651C12.2229 7.55564 12.784 7.53963 13.3239 7.51464C13.9235 7.4868 14.7484 7.53857 15.3101 7.32072C15.4569 7.26379 15.5078 7.11356 15.4557 6.99694ZM5.03283 2.21339C5.95161 2.73696 6.87671 3.51617 7.86354 3.91379C7.8308 4.18509 7.80981 4.45684 7.79718 4.72876C6.22665 3.29611 4.07091 2.38088 2.2627 1.30466C2.25834 1.30208 2.25478 1.30457 2.2506 1.30288C2.25033 1.12177 2.23601 0.945293 2.19207 0.781088C3.13887 0.924123 4.23111 1.75644 5.03283 2.21339ZM7.7841 5.15048C7.78179 5.28996 7.78126 5.42961 7.78233 5.56927C5.8551 4.44091 3.91666 3.42357 2.20639 1.9476C2.22525 1.78571 2.23957 1.62275 2.2466 1.46184C4.08425 2.68617 5.91505 3.98459 7.7841 5.15048ZM2.1298 2.74639C2.1339 2.57933 2.15311 2.39956 2.17499 2.2149C2.98427 2.9467 3.85662 3.60308 4.75068 4.22823C5.67239 4.87277 6.70788 5.62771 7.78997 6.02221C7.79416 6.16302 7.79789 6.30392 7.8043 6.44473C6.05106 5.17299 4.08283 3.97063 2.16147 2.97873C2.14911 2.97232 2.13737 2.97392 2.12669 2.97846C2.12803 2.90107 2.12776 2.82377 2.1298 2.74639ZM2.12553 3.05594C2.8279 3.75065 3.76918 4.24006 4.59821 4.76585C5.64339 5.42881 6.69089 6.08714 7.6875 6.82224C7.73607 6.85809 7.78428 6.86458 7.82636 6.85221C7.8316 6.94286 7.83534 7.0335 7.84103 7.12414C7.45801 6.86885 6.84255 6.66462 6.61261 6.54498C5.12961 5.77252 3.61361 5.06464 2.12304 4.30571C2.11806 3.88933 2.11931 3.47276 2.12553 3.05594ZM2.12936 4.59106C3.46426 5.35311 4.86453 5.9981 6.21989 6.72208C6.47856 6.86022 6.73376 7.00486 6.99466 7.13962C7.19195 7.24156 7.38827 7.34483 7.58387 7.45006C7.94644 7.64513 7.75244 7.4803 7.85954 7.41288C7.86007 7.42026 7.8606 7.42764 7.86105 7.43503C7.8051 7.4972 7.80092 7.60234 7.87581 7.64549C7.89716 7.9513 7.91922 8.25721 7.93915 8.56284C6.50765 7.41448 2.52386 4.82136 2.15533 5.48912C2.15178 5.4957 2.15133 5.50237 2.14946 5.50905C2.13888 5.20314 2.13487 4.89715 2.12936 4.59106ZM2.15151 5.56357C2.16112 5.58537 2.1798 5.60333 2.20524 5.61187C4.37761 6.34306 6.01165 7.97434 7.96859 9.07334C7.97615 9.21691 7.98469 9.36056 7.99021 9.50413C7.99207 9.55412 7.99118 9.60429 7.9927 9.65428C6.10274 8.38983 4.21323 7.06534 2.16992 6.06135C2.16263 5.89545 2.15738 5.72947 2.15151 5.56357ZM2.50313 13.1688C2.49726 13.1653 2.49121 13.1654 2.48534 13.1625C2.49264 13.1374 2.50127 13.1132 2.50109 13.0828C2.50047 12.9867 2.49771 12.8907 2.49646 12.7945C2.73476 13.0925 3.00304 13.3722 3.29133 13.6383C3.02919 13.4813 2.7667 13.3243 2.50313 13.1688ZM7.85571 16.2687C7.78864 16.2154 7.71926 16.2012 7.65557 16.2146C7.6328 16.1961 7.60709 16.181 7.58405 16.1629C6.09251 14.6981 3.9711 13.9548 2.49041 12.4286C2.48864 12.3452 2.48392 12.2618 2.48179 12.1784C3.35031 12.8199 4.27879 13.3756 5.20522 13.9285C6.10941 14.468 6.96548 15.1042 7.86905 15.639C7.86389 15.8489 7.85856 16.0588 7.85571 16.2687ZM7.87804 15.2871C6.41514 13.8583 4.19188 13.0126 2.47405 11.9539C2.46613 11.688 2.45305 11.4221 2.44185 11.1563C3.9091 12.6706 6.07881 13.7509 7.89485 14.7501C7.89529 14.7502 7.89565 14.7502 7.89609 14.7504C7.88987 14.9295 7.88337 15.1083 7.87804 15.2871ZM7.90721 14.437C7.25013 13.8436 6.38988 13.4445 5.62089 13.027C4.48898 12.4126 3.39336 11.7783 2.43206 10.9148C2.4261 10.7836 2.4173 10.6527 2.4108 10.5215C4.26144 11.6337 6.32966 12.4358 7.92723 13.9174C7.92056 14.0905 7.9138 14.2638 7.90721 14.437ZM7.94377 13.4947C7.40944 12.8325 6.33135 12.3729 5.67773 12.0042C4.61004 11.4022 3.50606 10.8405 2.39942 10.3082C2.38287 9.98385 2.36357 9.65962 2.34542 9.3353C3.07269 10.1393 4.01807 10.7369 4.93401 11.3C5.7971 11.8307 6.93737 12.6362 7.96779 12.8339C7.95996 13.0542 7.9524 13.2743 7.94377 13.4947ZM7.98051 12.4789C7.20663 11.9613 6.19125 11.6337 5.3825 11.1934C4.30654 10.6076 3.29116 9.93092 2.37442 9.11666C2.36072 9.10447 2.3464 9.09887 2.33208 9.09593C2.32532 8.97763 2.31954 8.85932 2.31278 8.74101C4.13638 9.93234 5.97652 11.3461 7.98905 12.1636C7.98611 12.2687 7.9838 12.3737 7.98051 12.4789ZM7.9975 11.8546C6.14695 10.6924 4.21421 9.59664 2.30157 8.53545C2.28778 8.29421 2.27577 8.0528 2.26208 7.81147C4.18654 8.97238 5.93151 10.6579 7.98549 11.5321C7.99065 11.5344 7.99608 11.5342 8.00132 11.5356C7.99946 11.6419 8.00008 11.7481 7.9975 11.8546ZM8.00479 11.2608C6.28313 9.89925 4.23903 8.58304 2.25291 7.64219C2.24055 7.42355 2.22925 7.20482 2.21715 6.98609C3.22542 7.54826 4.17036 8.2017 5.10141 8.88592C6.02989 9.56818 6.94556 10.4319 8.00639 10.9033C8.00559 11.0225 8.00639 11.1417 8.00479 11.2608ZM5.60452 8.86608C4.5138 8.09558 3.40484 7.36226 2.20541 6.77367C2.19678 6.61463 2.187 6.45558 2.17935 6.29645C2.17908 6.28995 2.17891 6.28346 2.17855 6.27697C4.1748 7.46758 6.05124 8.81805 7.99972 10.0834C8.00195 10.2415 8.00755 10.3994 8.00773 10.5576C7.26534 9.9327 6.39379 9.42354 5.60452 8.86608ZM14.943 5.6342C14.8671 5.80187 14.8912 5.98485 14.9046 6.16604C14.9074 6.20287 14.9113 6.24023 14.9142 6.27732C14.7938 6.19406 14.6566 6.12655 14.539 6.04703C14.386 5.94366 14.2431 5.82758 14.1035 5.70723C14.3897 5.68997 14.6716 5.66355 14.943 5.6342ZM11.0838 3.39858C11.1689 3.86006 11.1602 4.32376 11.1522 4.79743C10.8776 4.57123 10.6029 4.34449 10.3277 4.11784C10.5738 3.86255 10.8212 3.61242 11.0838 3.39858ZM11.0127 8.49524C10.1767 7.89437 9.3412 7.19619 8.4041 6.79733C8.39894 6.67493 8.39093 6.55218 8.38488 6.42969C8.82155 6.75001 9.25172 7.07886 9.69132 7.39553C10.0955 7.68676 10.5556 8.04443 11.0507 8.17519C11.0373 8.28176 11.0243 8.38841 11.0127 8.49524ZM11.0837 7.90914C10.691 7.63312 10.2232 7.42871 9.82528 7.16621C9.33142 6.84047 8.85775 6.48538 8.3703 6.15021C8.3614 5.98716 8.35428 5.82438 8.34468 5.66115C8.42153 5.63634 8.49607 5.6068 8.56937 5.57469C9.3638 6.17467 10.1858 7.02656 11.1343 7.36564C11.1234 7.54755 11.1056 7.72857 11.0837 7.90914ZM12.1718 7.0383C11.7653 6.63606 11.1438 6.3202 10.7115 6.02096C10.2876 5.72769 9.71009 5.20563 9.17157 5.25562C9.15939 5.25678 9.15022 5.27181 9.1609 5.28151C9.57461 5.65866 10.1006 5.94402 10.561 6.2783C10.8287 6.47266 11.123 6.75028 11.4312 6.9924C11.3521 6.99454 11.2729 7.02451 11.2174 7.08322C10.7966 6.8185 10.3553 6.59168 9.94394 6.30623C9.55095 6.0335 9.16828 5.74664 8.77627 5.47249C9.11331 5.28845 9.41574 5.03395 9.70502 4.75474C10.5348 5.68286 11.662 6.31521 12.6898 7.01251C12.517 7.02167 12.3444 7.03039 12.1718 7.0383ZM13.1778 6.97915C12.0961 6.12957 10.865 5.54649 9.86593 4.59444C9.98121 4.47836 10.095 4.35979 10.2086 4.2414C10.5318 4.53983 10.855 4.84066 11.1803 5.13999C11.2037 5.18242 11.2375 5.21542 11.2778 5.23837C11.2878 5.27066 11.3101 5.29992 11.3495 5.31922C11.3649 5.32687 11.3817 5.33159 11.3973 5.33888C12.0234 5.90942 12.6638 6.46474 13.3432 6.96616C13.288 6.97017 13.2329 6.97497 13.1778 6.97915ZM13.814 6.9135C13.2397 6.48084 12.6748 6.03813 12.1173 5.58679C12.4057 5.6551 12.7053 5.69229 13.0081 5.71132C12.966 5.75251 12.9486 5.82331 13.0001 5.86912C13.2513 6.09212 13.5172 6.29075 13.7916 6.48431C13.9499 6.59595 14.1112 6.72555 14.2782 6.84421C14.1197 6.86582 13.9624 6.891 13.814 6.9135ZM14.7825 6.80338C14.5641 6.6076 14.2778 6.46519 14.0358 6.31219C13.7398 6.12512 13.4481 5.93059 13.1669 5.72173C13.3866 5.73045 13.607 5.72698 13.8266 5.71897C13.9878 5.88576 14.1563 6.04338 14.3362 6.19015C14.5157 6.33656 14.7214 6.52905 14.9474 6.5923C14.9564 6.66355 14.9644 6.73507 14.9774 6.80543C14.9143 6.80053 14.8481 6.80258 14.7825 6.80338Z" fill="#2D527C"/>
</svg>
