<svg width="17" height="17" viewBox="0 0 17 17" fill="none" xmlns="http://www.w3.org/2000/svg">
<path d="M11.3788 8.67576C11.231 8.56841 10.9846 8.71088 11.002 8.89201C11.0611 9.51452 11.1641 10.0869 11.144 10.7237C11.1212 11.4464 11.0475 12.1675 11.0327 12.8904C9.6847 12.931 8.34022 12.8102 6.99238 12.8094C7.04211 9.8932 7.04247 6.96894 7.04202 4.06319C7.04202 3.83923 6.8186 3.76328 6.66052 3.83025C6.65989 3.82943 6.65971 3.82852 6.65907 3.82771C6.06614 3.08741 4.75978 2.70111 3.93382 2.27097C3.00059 1.78494 2.08897 1.2383 1.30366 0.536926C2.72173 0.635476 4.12783 0.839289 5.54545 0.943011C7.37369 1.07695 9.19168 0.744097 11.0162 0.983755C11.0632 1.56797 11.0493 2.14783 11.0149 2.73314C10.9833 3.2718 10.8842 3.88478 11.0956 4.39414C11.2081 4.66528 11.5559 4.61619 11.5936 4.32671C11.6707 3.73424 11.6109 3.09784 11.642 2.4962C11.6693 1.96652 11.6606 1.44991 11.5116 0.942285C11.6799 0.798726 11.6932 0.491372 11.4188 0.4411C9.79295 0.143184 8.1403 0.31206 6.49891 0.34854C4.62239 0.390192 2.76511 -0.14956 0.892223 0.0699522C0.87725 0.0716764 0.866179 0.0781193 0.85284 0.0818398C0.768719 -0.013624 0.597392 -0.0101757 0.532782 0.149717C-0.309695 2.2384 0.0721599 4.68361 0.18051 6.87302C0.288405 9.05126 -0.0401825 11.2921 0.495667 13.4309C0.525976 13.5517 0.613091 13.5975 0.702294 13.5934C2.17418 15.2242 4.50533 15.8865 6.37069 16.9465C6.49591 17.0177 6.61325 16.9821 6.69156 16.9046C6.79038 16.9072 6.88748 16.843 6.89256 16.7064C6.93512 15.5624 6.96398 14.4148 6.98575 13.266C8.43214 13.4499 9.87998 13.5614 11.3398 13.5079C11.515 13.5015 11.6474 13.37 11.6531 13.1945C11.6836 12.2901 11.7736 11.3892 11.7905 10.4843C11.8011 9.94038 11.8785 9.03838 11.3788 8.67576ZM3.09896 2.42597C4.10287 3.00447 5.34027 3.87253 6.4558 4.17689C6.47368 4.18179 6.48965 4.18152 6.50599 4.18243C6.50471 4.35031 6.49972 4.51955 6.49573 4.68833C5.82095 3.96972 4.82629 3.50139 3.9791 3.04793C2.88199 2.46063 1.78751 1.9285 0.784327 1.18339C0.802023 1.01434 0.81872 0.84546 0.84195 0.675676C1.42499 1.43721 2.26456 1.9452 3.09896 2.42597ZM0.664635 4.65067C2.61075 5.5123 4.51939 6.37746 6.24028 7.65043C6.29972 7.69444 6.3637 7.68746 6.41651 7.65642C6.40653 7.93011 6.39637 8.2038 6.38629 8.47776C4.48772 7.35687 2.53498 6.33935 0.675524 5.14641C0.671259 4.9808 0.66772 4.81574 0.664635 4.65067ZM0.681876 5.39043C2.4897 6.65541 4.37611 7.92539 6.37168 8.87349C6.36769 8.98457 6.36343 9.09546 6.35943 9.20662C4.58192 7.96913 2.71139 6.85986 0.754563 5.92972C0.734145 5.92001 0.714726 5.92083 0.697484 5.92628C0.692039 5.74714 0.686867 5.56865 0.681876 5.39043ZM0.725978 6.87266C0.718537 6.60478 0.710279 6.33844 0.702021 6.07301C2.6289 7.12012 4.43854 8.33501 6.24037 9.58194C6.27704 9.60726 6.31224 9.61325 6.34573 9.61152C6.33965 9.79283 6.33257 9.97396 6.32713 10.1553C4.49444 9.04246 2.59333 8.03437 0.72743 6.97846C0.726523 6.94307 0.726795 6.90796 0.725978 6.87266ZM0.730152 7.16731C2.57818 8.31668 4.38881 9.55227 6.31433 10.5683C6.31206 10.6538 6.30843 10.7394 6.30644 10.8249C4.45996 9.81842 2.53961 8.97821 0.740588 7.87893C0.739318 7.64208 0.73469 7.4046 0.730152 7.16731ZM0.741949 8.59218C0.742222 8.41677 0.741405 8.24118 0.74086 8.06568C2.45013 9.31288 4.36994 10.3577 6.29582 11.2203C6.29437 11.2917 6.29128 11.3633 6.2901 11.4347C4.57411 10.2555 2.46211 9.78485 0.741949 8.59218ZM6.28557 11.8354C6.28375 11.998 6.28057 12.1608 6.28003 12.3233C4.60787 11.1315 2.56293 10.397 0.764726 9.42432C0.756559 9.41987 0.748755 9.41887 0.74086 9.41688C0.741042 9.21025 0.741223 9.00308 0.741677 8.79636C2.3975 10.1023 4.51086 10.7026 6.28557 11.8354ZM0.740588 9.63031C2.54714 10.6838 4.41132 11.7202 6.28239 12.6521C6.28303 12.9331 6.2833 13.2139 6.28865 13.4943C4.72103 12.1305 2.53108 11.6416 0.748664 10.6075C0.742766 10.2819 0.741042 9.95617 0.740588 9.63031ZM0.774255 11.5095C0.762548 11.2673 0.759282 11.0252 0.753746 10.7829C2.5191 11.9754 4.64789 12.5487 6.30254 13.9086C6.31052 14.1849 6.31624 14.4616 6.33003 14.7371C5.67875 14.1052 4.54734 13.6972 3.8055 13.3027C3.18063 12.9704 2.5544 12.6401 1.93497 12.2979C1.70893 12.173 0.825979 11.8018 0.774527 11.5098C0.774436 11.5097 0.774255 11.5097 0.774255 11.5095ZM0.796578 11.8929C1.2052 12.3606 2.33598 12.8666 2.56239 12.9967C3.81167 13.7147 5.07621 14.4914 6.35208 15.153C6.36533 15.3681 6.37994 15.5829 6.39736 15.7975C5.2135 15.1189 4.03137 14.4023 2.91457 13.6232C2.3622 13.2379 1.57399 12.4163 0.829337 12.3567C0.815816 12.2019 0.80656 12.0474 0.796578 11.8929ZM0.936053 13.3439C0.935962 13.3319 0.93932 13.3214 0.937505 13.3088C0.904111 13.081 0.878611 12.8531 0.855108 12.6255C2.62119 13.92 4.50206 15.1372 6.4303 16.174C6.43575 16.2323 6.43974 16.2908 6.44564 16.3491C4.62402 15.2987 2.67055 14.5569 0.936053 13.3439ZM6.42867 7.32021C4.78573 5.92201 2.65758 5.19977 0.661731 4.45539C0.656558 4.11437 0.655742 3.77408 0.65919 3.43387C2.26692 4.90131 4.45261 5.73598 6.45326 6.54044C6.445 6.80051 6.43793 7.05986 6.42867 7.32021ZM6.46651 6.12437C4.50034 5.22046 2.38779 4.61501 0.699481 3.20229C0.68841 3.19303 0.676704 3.18723 0.664907 3.18314C0.669898 2.90692 0.680243 2.63042 0.693582 2.35373C1.73116 3.11037 2.83907 3.74413 3.96803 4.35639C4.24961 4.50911 5.99672 5.55068 6.47776 5.56683C6.47314 5.75304 6.47196 5.93798 6.46651 6.12437ZM5.3155 4.65448C3.72311 4.00702 2.12146 3.11018 0.705379 2.13041C0.719354 1.88876 0.736868 1.64665 0.759191 1.40409C1.61437 2.06326 2.54578 2.60918 3.4741 3.15882C4.5125 3.77353 5.46559 4.50412 6.48666 5.13198C6.48657 5.13425 6.48657 5.13652 6.48648 5.13879C6.12876 4.91401 5.63937 4.78606 5.3155 4.65448Z" fill="#2D527C"/>
<path d="M16.9395 6.09316C16.9396 6.06911 16.9352 6.04397 16.9253 6.01811C16.685 5.39124 15.8915 4.96356 15.3513 4.61819C14.6273 4.15521 13.8526 3.77462 13.0527 3.46164C12.9488 3.42099 12.8783 3.48796 12.8584 3.57271C12.7584 3.59186 12.6695 3.65502 12.6473 3.76745C12.5663 4.1788 12.6019 4.66546 12.6574 5.11329C12.319 5.04723 11.9166 5.07763 11.6751 5.07527C10.7817 5.06656 9.85636 5.09442 8.96951 5.20848C8.85245 5.22355 8.78603 5.33589 8.80672 5.42854C8.803 5.44124 8.79737 5.45222 8.79583 5.46683C8.75191 5.87655 8.72133 6.28744 8.71933 6.6997C8.71815 6.96014 8.6951 7.30869 8.83176 7.54571C8.80345 7.56867 8.77223 7.58755 8.7471 7.61504C8.72241 7.64227 8.7216 7.68138 8.7471 7.70842C9.15463 8.14127 9.95319 7.92031 10.4922 7.88782C11.2508 7.842 12.0677 7.84018 12.8227 7.69481C12.7829 7.89236 12.8006 8.11959 12.7871 8.31033C12.7665 8.60217 12.7345 8.8931 12.7178 9.18548C12.6993 9.50871 13.1306 9.55191 13.2627 9.31878C13.2659 9.31869 13.2683 9.32032 13.2716 9.32014C14.8739 9.22223 16.1267 7.63237 16.9491 6.40523C17.0279 6.28762 17.0073 6.17392 16.9395 6.09316ZM14.8695 5.00503C15.412 5.34133 15.8719 5.82809 16.3965 6.17465C16.3479 6.24497 16.2935 6.31757 16.2426 6.38899C15.2182 5.73825 14.2713 4.97418 13.2333 4.34568C13.2334 4.21655 13.2296 4.08878 13.2161 3.96582C13.7566 4.32844 14.3165 4.66229 14.8695 5.00503ZM9.30745 7.34145C9.31679 7.19435 9.29393 7.03899 9.27496 6.88926C9.39964 6.99262 9.52152 7.09934 9.6491 7.19907C9.6932 7.23355 9.73903 7.27012 9.78449 7.30624C9.62215 7.30787 9.45954 7.31413 9.30745 7.34145ZM10.4923 7.30079C10.4114 7.30642 10.3235 7.30733 10.2329 7.30714C10.1168 7.23473 9.99865 7.16458 9.88885 7.08745C9.6687 6.93264 9.45727 6.76594 9.24747 6.59734C9.22823 6.31893 9.20019 6.0408 9.17169 5.76294C9.68994 6.31358 10.296 6.8497 10.9282 7.26168C10.7817 7.27665 10.636 7.29081 10.4923 7.30079ZM11.3363 7.21785C11.3303 7.21114 11.3261 7.2037 11.3182 7.1978C10.6156 6.6614 9.89929 6.16838 9.21834 5.60522C9.402 5.63762 9.59121 5.65313 9.78177 5.66266C10.1187 5.97228 10.4585 6.27828 10.8087 6.57302C11.0243 6.75451 11.2965 7.02838 11.5816 7.19208C11.4998 7.2007 11.4179 7.20887 11.3363 7.21785ZM12.03 7.15215C12.0291 7.15106 12.0294 7.14997 12.0284 7.14898C11.7744 6.86975 11.3697 6.67574 11.0647 6.45287C10.7198 6.20087 10.3841 5.93608 10.049 5.67101C10.2134 5.67319 10.3776 5.67083 10.5401 5.66774C10.5444 5.68335 10.5518 5.69878 10.5671 5.71303C11.1037 6.21557 11.6706 6.68273 12.2442 7.14208C12.1729 7.14589 12.1018 7.1468 12.03 7.15215ZM13.3284 8.79446C13.3419 8.55562 13.349 8.25625 13.3194 7.99899C13.5488 8.18211 13.7769 8.36696 14.003 8.55407C13.788 8.65988 13.5637 8.74291 13.3284 8.79446ZM14.306 8.38601C13.9697 8.06214 13.6104 7.76786 13.2412 7.48609C13.2838 7.34508 13.1886 7.16268 13.0081 7.14634C12.9313 7.13936 12.8528 7.1409 12.7753 7.13809C12.1151 6.65696 11.4416 6.19252 10.8178 5.66266C10.9075 5.66076 10.9987 5.65849 11.086 5.6574C11.2419 5.6554 11.3976 5.65631 11.5532 5.65803C12.426 6.60777 13.4637 7.46468 14.4657 8.27657C14.4125 8.31324 14.3606 8.35226 14.306 8.38601ZM14.7002 8.10525C13.8867 7.17838 12.7881 6.50487 11.8744 5.66529C11.9856 5.66847 12.0967 5.67047 12.208 5.67582C12.4002 5.68499 12.6044 5.74932 12.8017 5.77174C13.2502 6.05804 13.6778 6.37102 14.091 6.71213C14.3209 6.90206 14.5435 7.10143 14.7638 7.30261C14.8985 7.42575 15.0286 7.59372 15.2044 7.65297C15.0438 7.81414 14.8761 7.96668 14.7002 8.10525ZM15.3682 7.48219C15.236 7.09199 14.5664 6.69797 14.274 6.47474C13.9251 6.20831 13.5558 5.92455 13.1572 5.71094C13.2179 5.65949 13.2531 5.58299 13.2215 5.49578C13.2041 5.44805 13.1784 5.40722 13.1493 5.36956C13.1556 5.32373 13.1611 5.27509 13.1672 5.22817C13.5215 5.57655 13.8854 5.91675 14.248 6.25541C14.5933 6.57783 15.0482 7.12593 15.5279 7.22983C15.5586 7.23645 15.5875 7.22493 15.6113 7.20733C15.5322 7.30025 15.4518 7.39263 15.3682 7.48219ZM15.6393 7.08536C15.3689 6.67465 14.8145 6.38499 14.4398 6.06385C14.0221 5.70595 13.6236 5.3221 13.1977 4.97363C13.2107 4.85013 13.2198 4.7249 13.2265 4.59986C14.177 5.273 15.0621 6.03735 16.0376 6.67456C15.9113 6.84262 15.7789 7.01077 15.6401 7.17502C15.6549 7.14843 15.6601 7.11694 15.6393 7.08536Z" fill="#2D527C"/>
</svg>
