<svg width="33" height="42" viewBox="0 0 33 42" fill="none" xmlns="http://www.w3.org/2000/svg">
<path d="M30.837 31.2984C30.433 29.4357 28.9814 27.9788 27.1202 27.5681L20.2573 26.0533C20.2057 26.7941 19.9634 27.482 19.5801 28.0696C19.5923 28.0748 19.6039 28.0808 19.616 28.086C18.8575 29.2374 17.5284 30.3979 16.0463 30.3979C14.5573 30.3979 13.2743 29.2301 12.5174 28.0696C12.1341 27.482 11.8918 26.7941 11.8402 26.0533L4.97728 27.5681C3.11612 27.9788 1.66448 29.4357 1.26048 31.2984L0 37.1099C1.30965 37.9683 2.79471 38.7208 4.4179 39.3473C5.04413 39.589 5.91926 39.5298 6.58486 39.7324C9.5188 40.6259 12.5627 41.1367 16.0463 41.1367C19.512 41.1367 24.7571 40.2321 27.6797 39.3473C29.3009 38.7217 30.7841 37.9701 32.0925 37.1131C32.0942 37.112 32.0958 37.111 32.0975 37.1099L30.837 31.2984Z" fill="#2C556B"/>
<path d="M10.1531 23.7835C10.7655 23.2754 14.4316 23.9142 14.4316 23.9142V26.7802H11.1167C11.1166 26.7802 9.60156 24.2409 10.1531 23.7835Z" fill="#32373B"/>
<path d="M21.9843 23.7835C21.3719 23.2754 17.7058 23.9142 17.7058 23.9142V26.7802H21.0207C21.0207 26.7802 22.5357 24.2409 21.9843 23.7835Z" fill="#32373B"/>
<path d="M13.1958 25.4801H18.8958C18.8958 25.4801 19.0254 28.3491 16.1775 28.3491C13.3296 28.3491 13.1915 26.0613 13.1958 25.4801Z" fill="#34631C"/>
<path d="M18.4201 22.3523H13.724V29.3964H18.4201V22.3523Z" fill="#DDC29B"/>
<path d="M27.8315 14.717C27.8315 13.7366 27.2267 12.8988 26.3705 12.5525C26.4011 12.2112 26.4176 11.8733 26.4176 11.5405C26.4176 5.82514 21.7843 1.97961 16.0689 1.97961C10.3536 1.97961 5.72033 5.82514 5.72033 11.5405C5.72033 11.8733 5.73663 12.2112 5.76743 12.5525C4.91122 12.8988 4.3064 13.7366 4.3064 14.717C4.3064 15.9848 6.013 17.7121 7.29614 17.7704C9.12608 21.4528 12.3707 24.4763 16.0689 24.4763C19.7672 24.4763 23.0118 21.4528 24.8418 17.7704C26.1249 17.7121 27.8315 15.985 27.8315 14.717Z" fill="#E8D8BF"/>
<path d="M16.0721 31.1667C18.3111 31.1667 20.1438 28.2631 20.3031 26.0647L18.4201 24.6463C18.4201 26.2321 17.653 27.1612 16.0672 27.1612C14.4815 27.1612 13.724 26.2321 13.724 24.6463L11.8402 26.0533C11.9938 28.2572 13.8291 31.1667 16.0721 31.1667Z" fill="#CBE3E3"/>
<path d="M27.6129 39.3472C26.4884 34.6006 24.1103 30.1169 19.4276 28.0859C18.6576 29.2373 17.3345 31.1665 15.8301 31.1665C14.3185 31.1665 12.9901 29.2299 12.2217 28.0695C7.51465 30.0928 5.12739 34.5882 4 39.3472C4.63569 39.5889 5.29157 39.8124 5.96721 40.015C8.94544 40.9085 12.291 41.4104 15.8273 41.4104C19.3453 41.4104 24.6463 40.2321 27.6129 39.3472Z" fill="#CEE8FA"/>
<path d="M27.0392 27.5681C28.9284 27.9788 30.402 29.4357 30.8121 31.2984L32.0923 37.1131C32.094 37.112 32.0956 37.111 32.0973 37.1099L30.8178 31.2984C30.4077 29.4357 28.9342 27.9788 27.0449 27.5681L20.0784 26.0533C20.026 26.7941 19.7801 27.482 19.391 28.0696C19.4033 28.0748 19.4151 28.0808 19.4274 28.086C19.8207 27.4979 20.0701 26.808 20.1248 26.0646L27.0392 27.5681Z" fill="#5065A1"/>
<path d="M26.3705 12.5525C26.4011 12.2112 26.4176 11.8733 26.4176 11.5405C26.4176 5.82513 21.7844 3.77902 16.069 3.77902C10.3536 3.77902 5.72021 5.82513 5.72021 11.5405C5.72021 11.8733 5.7365 12.2112 5.7673 12.5525C4.9111 12.8988 4.30627 13.7366 4.30627 14.717C4.30627 15.9848 6.01288 17.7121 7.29601 17.7704C9.12596 21.4528 12.3705 24.4763 16.0688 24.4763C19.7671 24.4763 23.0117 21.4528 24.8416 17.7704C26.1248 17.7121 27.8314 15.9848 27.8314 14.717C27.8315 13.7366 27.2267 12.8988 26.3705 12.5525ZM16.0688 24.1351C11.7314 24.1351 8.21534 17.0893 8.21534 12.5463C8.21534 8.00327 11.7314 6.29211 16.0688 6.29211C20.4062 6.29211 23.9223 8.00327 23.9223 12.5463C23.9223 17.0893 20.4062 24.1351 16.0688 24.1351Z" fill="#DDCDB6"/>
<path d="M24.2514 18.8526C25.222 17.8353 25.8416 16.5483 26.197 15.592C27.0573 13.2763 28.2261 8.44733 25.447 4.32487C22.1002 -0.639839 16.6675 0.514566 16.6675 0.514566C13.4217 -1.48334 7.11683 2.67365 5.73301 7.18602C4.81368 10.1838 4.992 12.5017 5.43591 14.1996C5.56409 14.6898 6.1453 16.0979 6.1453 16.0979C6.4254 16.8152 6.97609 17.8348 7.70108 18.5337C7.70108 18.5337 6.96462 17.2247 6.83603 15.8635L9.16307 10.3871C9.16307 10.3871 15.6547 13.9544 22.9981 10.4396L25.0582 15.063C25.0792 16.8552 24.2514 18.8526 24.2514 18.8526Z" fill="#5B5869"/>
<path d="M5.73313 10.3626C7.11695 5.85027 13.4218 1.69328 16.6677 3.69118C16.6677 3.69118 22.1003 2.53678 25.4472 7.50163C26.4322 8.96266 26.8758 10.5966 27.0707 12.0966C27.3551 9.77024 27.1605 6.86628 25.4472 4.32487C22.1003 -0.639839 16.6677 0.514566 16.6677 0.514566C13.4218 -1.48334 7.11695 2.67365 5.73313 7.18602C5.04377 9.43364 5.00924 11.3705 5.19985 12.859C5.29446 12.0799 5.46214 11.2461 5.73313 10.3626Z" fill="#43414F"/>
<path d="M24.2121 25.7362C22.6583 25.3909 22.4207 24.0576 21.9544 23.7609L16.4658 30.7545H15.6722L10.1836 23.7609C9.71728 24.0576 9.47971 25.3909 7.92586 25.7362C6.37202 26.0815 5.17908 27.5234 5.17908 27.5234L10.5169 29.1841L13.1685 30.0089V33.1946C13.1685 33.3854 13.323 33.5399 13.5138 33.5399C13.7045 33.5399 13.8591 33.3854 13.8591 33.1946V30.247L14.4388 30.4469C14.7986 30.752 15.1835 30.9882 15.5856 31.0981V41.4061C15.7465 41.4083 15.9074 41.4104 16.0691 41.4104C16.2263 41.4104 16.3883 41.4072 16.5524 41.4024V31.0992C16.956 30.9897 17.3423 30.7521 17.7035 30.4452L18.3249 30.231V33.1945C18.3249 33.3852 18.4794 33.5398 18.6702 33.5398C18.8609 33.5398 19.0155 33.3852 19.0155 33.1945V29.9929L21.6132 29.2071L27.0677 27.5574C27.0677 27.5577 25.766 26.0815 24.2121 25.7362Z" fill="#2C556B"/>
</svg>
