<svg width="34" height="34" viewBox="0 0 34 34" fill="none" xmlns="http://www.w3.org/2000/svg">
<path d="M18.8673 2.96206V1.9103C18.8673 1.45528 18.4971 1.08511 18.0422 1.08511H15.717C15.262 1.08511 14.8918 1.45528 14.8918 1.9103V2.96206H18.8673Z" fill="#CF5530"/>
<path d="M14.3492 19.3181C14.649 19.3181 14.8918 19.561 14.8918 19.8606V32.9149H18.8673V19.8606C18.8673 19.561 19.1101 19.3181 19.4098 19.3181C19.4101 19.3181 19.4101 18.233 19.4101 18.233H14.3491V19.3181H14.3492Z" fill="#CF5530"/>
<path d="M31.8347 11.0511H2.46094V17.1479H32.6739V15.8331L32.1231 15.2135C31.9404 15.0079 31.9404 14.6981 32.1231 14.4925L32.6739 13.8729V11.0512H31.8467C31.8428 11.0512 31.8387 11.0512 31.8347 11.0511ZM25.7332 15.0726C25.5953 15.3387 25.2678 15.4425 25.0018 15.3045L22.4611 13.9872L19.9204 15.3045C19.7638 15.3857 19.5775 15.3857 19.4209 15.3045L16.88 13.9872L14.3392 15.3045C14.1827 15.3857 13.9963 15.3858 13.8398 15.3045L11.2985 13.9872L8.7573 15.3045C8.67751 15.3459 8.59215 15.3655 8.50809 15.3655C8.3119 15.3655 8.12244 15.2588 8.02594 15.0726C7.88806 14.8066 7.99194 14.4791 8.25794 14.3412L11.0489 12.8944C11.2054 12.8132 11.3917 12.8132 11.5483 12.8944L14.0895 14.2118L16.6303 12.8945C16.7869 12.8133 16.9732 12.8133 17.1298 12.8945L19.6706 14.2118L22.2114 12.8945C22.3679 12.8133 22.5543 12.8133 22.7108 12.8945L25.5013 14.3413C25.7673 14.4792 25.8711 14.8066 25.7332 15.0726ZM29.6519 15.8043C29.3328 15.8043 29.0732 15.5446 29.0732 15.2256C29.0732 14.9065 29.3328 14.6468 29.6519 14.6468C29.971 14.6468 30.2306 14.9065 30.2306 15.2256C30.2306 15.5446 29.971 15.8043 29.6519 15.8043Z" fill="#E9B264"/>
<path d="M31.2982 4.04715H1.08521V5.36194L1.63601 5.98153C1.81874 6.18712 1.81874 6.49689 1.63601 6.70248L1.08521 7.32207V9.96597H31.2982V4.04715ZM3.89874 8.42556C3.57965 8.42556 3.32002 8.16593 3.32002 7.84683C3.32002 7.52774 3.57965 7.26811 3.89874 7.26811C4.21783 7.26811 4.47746 7.52774 4.47746 7.84683C4.47746 8.16593 4.21783 8.42556 3.89874 8.42556ZM5.34555 6.83407C5.02646 6.83407 4.76683 6.57444 4.76683 6.25534C4.76683 5.93625 5.02646 5.67662 5.34555 5.67662C5.66464 5.67662 5.92427 5.93625 5.92427 6.25534C5.92427 6.57444 5.66464 6.83407 5.34555 6.83407ZM25.7333 7.97979C25.5954 8.24586 25.2679 8.34974 25.0019 8.21172L22.4612 6.8944L19.9204 8.21172C19.7639 8.29288 19.5775 8.29288 19.421 8.21172L16.8801 6.8944L14.3393 8.21172C14.1827 8.29288 13.9964 8.29296 13.8398 8.21172L11.2985 6.89432L8.75727 8.21172C8.67748 8.2531 8.59212 8.2727 8.50806 8.2727C8.31187 8.2727 8.12241 8.16593 8.02591 7.97972C7.88803 7.71373 7.99191 7.38624 8.2579 7.24836L11.0489 5.80155C11.2054 5.72038 11.3917 5.72038 11.5482 5.80155L14.0895 7.11894L16.6303 5.80162C16.7868 5.72046 16.9732 5.72046 17.1297 5.80162L19.6706 7.11894L22.2114 5.80162C22.3679 5.72046 22.5543 5.72046 22.7108 5.80162L25.5013 7.24843C25.7673 7.38631 25.8711 7.71372 25.7333 7.97979Z" fill="#F59B45"/>
<path d="M29.6517 14.6469C29.3326 14.6469 29.073 14.9065 29.073 15.2256C29.073 15.5447 29.3326 15.8043 29.6517 15.8043C29.9708 15.8043 30.2304 15.5447 30.2304 15.2256C30.2304 14.9065 29.9708 14.6469 29.6517 14.6469Z" fill="#34150C"/>
<path d="M5.34557 5.67664C5.02648 5.67664 4.76685 5.93627 4.76685 6.25536C4.76685 6.57445 5.02648 6.83408 5.34557 6.83408C5.66466 6.83408 5.92429 6.57445 5.92429 6.25536C5.92429 5.93627 5.66466 5.67664 5.34557 5.67664Z" fill="#34150C"/>
<path d="M3.89855 7.2681C3.57945 7.2681 3.31982 7.52773 3.31982 7.84682C3.31982 8.16592 3.57945 8.42555 3.89855 8.42555C4.21764 8.42555 4.47727 8.16592 4.47727 7.84682C4.47727 7.52773 4.21764 7.2681 3.89855 7.2681Z" fill="#34150C"/>
<path d="M33.759 14.0792V10.5086C33.759 10.209 33.5161 9.96605 33.2164 9.96605H32.3832V3.5046C32.3832 3.20497 32.1404 2.96205 31.8406 2.96205H19.9524V1.91029C19.9524 0.856945 19.0954 0 18.0421 0H15.717C14.6636 0 13.8067 0.856945 13.8067 1.91029V2.96205H0.542553C0.242919 2.96205 0 3.20497 0 3.5046V5.56819C0 5.70108 0.0487575 5.82934 0.137085 5.92866L0.504575 6.34201L0.137085 6.75537C0.0488298 6.85469 0 6.98295 0 7.11584V10.5086C0 10.8082 0.242919 11.0512 0.542553 11.0512H1.37577V17.6904C1.37577 17.9901 1.61869 18.233 1.91832 18.233H14.3491H19.41H33.2164C33.5161 18.233 33.759 17.9901 33.759 17.6904V15.6268C33.759 15.4939 33.7102 15.3656 33.6219 15.2663L33.2545 14.853L33.6219 14.4397C33.7102 14.3403 33.759 14.2121 33.759 14.0792ZM32.6739 13.8729L32.1231 14.4925C31.9403 14.6981 31.9403 15.0078 32.1231 15.2134L32.6739 15.833V17.1478H2.46088V11.0511H31.8347C31.8387 11.0512 31.8427 11.0512 31.8467 11.0511H32.6739V13.8729H32.6739ZM1.08511 7.32215L1.63591 6.70256C1.81864 6.49697 1.81864 6.1872 1.63591 5.98161L1.08511 5.36202V4.04716H31.2981V9.96605H1.08511V7.32215ZM15.717 1.08511H18.0421C18.4971 1.08511 18.8673 1.45527 18.8673 1.91029V2.96205H14.8918V1.91029C14.8917 1.45527 15.262 1.08511 15.717 1.08511Z" fill="#34150C"/>
<path d="M18.8671 19.8606V32.9149H14.8917V19.8606C14.8917 19.561 14.6487 19.3181 14.3491 19.3181C14.0494 19.3182 13.8066 19.561 13.8066 19.8606V32.9149H8.5074C8.20776 32.9149 7.96484 33.1578 7.96484 33.4575C7.96484 33.7571 8.20776 34 8.5074 34H25.2513C25.551 34 25.7939 33.7571 25.7939 33.4575C25.7939 33.1578 25.551 32.9149 25.2513 32.9149H19.9522V19.8606C19.9522 19.5611 19.7094 19.3182 19.4098 19.3181C19.11 19.3181 18.8671 19.561 18.8671 19.8606Z" fill="#34150C"/>
<path d="M25.5012 7.24836L22.7107 5.80155C22.5542 5.72038 22.3678 5.72038 22.2113 5.80155L19.6705 7.11887L17.1296 5.80155C16.9731 5.72038 16.7867 5.72038 16.6302 5.80155L14.0894 7.11887L11.5481 5.80148C11.3916 5.72031 11.2053 5.72031 11.0488 5.80148L8.25781 7.24828C7.99181 7.38624 7.88793 7.71365 8.02581 7.97965C8.12231 8.16585 8.31177 8.27262 8.50796 8.27262C8.59202 8.27262 8.67738 8.25302 8.75717 8.21164L11.2984 6.89425L13.8397 8.21164C13.9962 8.29281 14.1826 8.29281 14.3391 8.21164L16.8799 6.89432L19.4208 8.21164C19.5773 8.29281 19.7637 8.29281 19.9202 8.21164L22.461 6.89432L25.0017 8.21164C25.2678 8.34967 25.5952 8.24579 25.7331 7.97972C25.871 7.71372 25.7672 7.38631 25.5012 7.24836Z" fill="#34150C"/>
<path d="M25.5012 14.3413L22.7107 12.8945C22.5542 12.8133 22.3678 12.8133 22.2113 12.8945L19.6705 14.2118L17.1296 12.8945C16.9731 12.8133 16.7867 12.8133 16.6302 12.8945L14.0894 14.2118L11.5481 12.8944C11.3916 12.8132 11.2053 12.8132 11.0488 12.8944L8.25781 14.3412C7.99181 14.4792 7.88793 14.8066 8.02581 15.0726C8.12231 15.2588 8.31177 15.3656 8.50796 15.3656C8.59202 15.3656 8.67738 15.346 8.75717 15.3046L11.2984 13.9872L13.8397 15.3046C13.9962 15.3857 14.1826 15.3857 14.3391 15.3046L16.8799 13.9872L19.4208 15.3046C19.5773 15.3857 19.7637 15.3857 19.9202 15.3046L22.461 13.9872L25.0017 15.3046C25.2678 15.4425 25.5952 15.3387 25.7331 15.0726C25.871 14.8067 25.7672 14.4792 25.5012 14.3413Z" fill="#34150C"/>
</svg>
