<svg width="33" height="33" viewBox="0 0 33 33" fill="none" xmlns="http://www.w3.org/2000/svg">
<g clip-path="url(#clip0_8_583)">
<path d="M32.304 13.8786L0.311035 14.5474L0.400485 18.826L32.3935 18.1571L32.304 13.8786Z" fill="#454F58"/>
<path d="M12.7651 14.2871L11.6464 14.3105L11.7358 18.589L12.8545 18.5656L12.7651 14.2871Z" fill="#5C6670"/>
<path d="M20.9688 14.1156L19.8501 14.1389L19.9395 18.4175L21.0582 18.3941L20.9688 14.1156Z" fill="#5C6670"/>
<path d="M5.40778 10.3379L4.49359 10.357C2.97254 10.3888 1.76522 11.6476 1.79702 13.1687L1.9428 20.1415C1.9746 21.6626 3.23347 22.8698 4.75452 22.838L5.66871 22.8189L5.40778 10.3379Z" fill="#5C6670"/>
<path d="M10.2752 23.3155C10.307 24.8366 9.09966 26.0954 7.57861 26.1272C6.05756 26.159 4.79868 24.9517 4.76688 23.4307L4.48116 9.76417C4.44936 8.24312 5.65668 6.98432 7.17773 6.95252C8.69878 6.92072 9.95766 8.12796 9.98946 9.64901L10.2752 23.3155Z" fill="#CEE8FA"/>
<path d="M27.0358 9.88571L27.95 9.8666C29.471 9.8348 30.7299 11.042 30.7617 12.5631L30.9075 19.536C30.9393 21.057 29.7319 22.3158 28.2109 22.3476L27.2967 22.3667L27.0358 9.88571Z" fill="#5C6670"/>
<path d="M22.7151 23.0555C22.7469 24.5765 24.0057 25.7837 25.5268 25.7519C27.048 25.7201 28.2552 24.4613 28.2234 22.9403L27.9377 9.27377C27.9059 7.75272 26.6471 6.54548 25.126 6.57728C23.6048 6.60908 22.3976 7.86788 22.4294 9.38893L22.7151 23.0555Z" fill="#CEE8FA"/>
</g>
<defs>
<clipPath id="clip0_8_583">
<rect width="32" height="32" fill="white" transform="translate(0.0213623 0.690186) rotate(-1.19768)"/>
</clipPath>
</defs>
</svg>
