<svg width="32" height="32" viewBox="0 0 32 32" fill="none" xmlns="http://www.w3.org/2000/svg">
<g clip-path="url(#clip0_274_624)">
<path d="M23.334 12C23.334 18.2598 18.2597 23.334 12 23.334C5.74117 23.334 0.666992 18.2598 0.666992 12C0.666992 5.7402 5.74124 0.666016 12 0.666016C18.2597 0.666016 23.334 5.7402 23.334 12Z" fill="#CEE8FA"/>
<path d="M12 12.666C11.6328 12.666 11.334 12.3681 11.334 12V3.99996C11.334 3.63083 11.6328 3.33301 12 3.33301C12.3691 3.33301 12.667 3.63083 12.667 3.99996V12C12.667 12.3682 12.3691 12.666 12 12.666Z" fill="#434A54"/>
<path d="M17.6573 18.3242C17.4864 18.3242 17.3164 18.2579 17.1856 18.1289L11.5293 12.4707C11.2686 12.211 11.2686 11.7881 11.5293 11.5283C11.7891 11.2676 12.2109 11.2676 12.4717 11.5283L18.129 17.1855C18.3887 17.4453 18.3887 17.8672 18.129 18.1289C17.9981 18.2578 17.8281 18.3242 17.6573 18.3242Z" fill="#434A54"/>
<path d="M12 1.99998C11.6328 1.99998 11.334 1.70116 11.334 1.33297V0.666016C11.334 0.29782 11.6328 0 12 0C12.3691 0 12.667 0.29782 12.667 0.666016V1.33297C12.667 1.70116 12.3691 1.99998 12 1.99998Z" fill="#434A54"/>
<path d="M12 24C11.6328 24 11.334 23.7012 11.334 23.334V22.666C11.334 22.2988 11.6328 22 12 22C12.3691 22 12.667 22.2988 12.667 22.666V23.334C12.667 23.7012 12.3691 24 12 24Z" fill="#434A54"/>
<path d="M6.66798 3.4287C6.43748 3.4287 6.21291 3.30958 6.08984 3.0957L5.75584 2.51756C5.57221 2.19917 5.68158 1.79098 5.99997 1.60741C6.31929 1.42284 6.72654 1.53222 6.91111 1.85154L7.24412 2.42868C7.42869 2.74706 7.31931 3.15526 6.99999 3.33883C6.89549 3.40039 6.78123 3.4287 6.66798 3.4287Z" fill="#434A54"/>
<path d="M17.668 22.4825C17.4375 22.4825 17.2129 22.3613 17.0898 22.1485L16.7558 21.5703C16.5722 21.2519 16.6816 20.8437 17 20.6602C17.3193 20.4765 17.7265 20.5859 17.9111 20.9043L18.2441 21.4824C18.4287 21.8008 18.3193 22.209 18 22.3926C17.8955 22.4532 17.7812 22.4825 17.668 22.4825Z" fill="#434A54"/>
<path d="M2.76179 7.33298C2.64953 7.33298 2.53522 7.30466 2.42978 7.2431L1.85264 6.91009C1.53332 6.72646 1.42394 6.31827 1.60851 5.99995C1.79307 5.68063 2.20033 5.57125 2.51965 5.75582L3.09579 6.08882C3.41511 6.27339 3.52449 6.68059 3.33992 6.99997C3.21686 7.21385 2.99223 7.33298 2.76179 7.33298Z" fill="#434A54"/>
<path d="M21.8144 18.334C21.7011 18.334 21.5868 18.3047 21.4823 18.2441L20.9043 17.9101C20.5859 17.7265 20.4765 17.3183 20.6601 17C20.8447 16.6807 21.2529 16.5713 21.5712 16.7559L22.1484 17.0899C22.4677 17.2735 22.5771 17.6817 22.3925 18C22.2695 18.2149 22.0449 18.334 21.8144 18.334Z" fill="#434A54"/>
<path d="M1.33397 12.666H0.666953C0.298757 12.666 0 12.3681 0 12C0 11.6308 0.298819 11.333 0.666953 11.333H1.33397C1.7021 11.333 1.99998 11.6308 1.99998 12C1.99998 12.3682 1.7021 12.666 1.33397 12.666Z" fill="#434A54"/>
<path d="M23.334 12.666H22.667C22.2988 12.666 22 12.3681 22 12C22 11.6308 22.2988 11.333 22.667 11.333H23.334C23.7022 11.333 24 11.6308 24 12C24 12.3682 23.7022 12.666 23.334 12.666Z" fill="#434A54"/>
<path d="M2.1864 18.334C1.9559 18.334 1.73227 18.2149 1.60826 18C1.4237 17.6816 1.53307 17.2734 1.85239 17.0899L2.42953 16.7559C2.74785 16.5713 3.15611 16.6807 3.33968 17C3.52425 17.3184 3.41487 17.7266 3.09555 17.9101L2.51941 18.2441C2.41397 18.3047 2.29872 18.334 2.1864 18.334Z" fill="#434A54"/>
<path d="M21.2383 7.33298C21.0078 7.33298 20.7841 7.21285 20.6601 6.99997C20.4765 6.68065 20.5859 6.27339 20.9043 6.08882L21.4823 5.75582C21.8007 5.57125 22.2089 5.68063 22.3925 5.99995C22.5771 6.31827 22.4677 6.72653 22.1484 6.91009L21.5712 7.2431C21.4667 7.30366 21.3515 7.33298 21.2383 7.33298Z" fill="#434A54"/>
<path d="M6.33293 22.4825C6.22062 22.4825 6.10537 22.4532 5.99993 22.3926C5.68154 22.209 5.57217 21.8008 5.75673 21.4824L6.08974 20.9043C6.27337 20.5859 6.68157 20.4765 6.99989 20.6602C7.31921 20.8438 7.42858 21.252 7.24402 21.5703L6.91101 22.1485C6.78701 22.3613 6.56338 22.4825 6.33293 22.4825Z" fill="#434A54"/>
<path d="M17.333 3.4287C17.2207 3.4287 17.1054 3.39939 17 3.33883C16.6816 3.1552 16.5722 2.74706 16.7558 2.42868L17.0898 1.85154C17.2735 1.53222 17.6817 1.42284 18 1.60741C18.3193 1.79104 18.4287 2.19924 18.2441 2.51756L17.9111 3.0957C17.7871 3.30858 17.5635 3.4287 17.333 3.4287Z" fill="#434A54"/>
<path d="M12 24C8.79489 24 5.7812 22.7519 3.51558 20.4844C1.24903 18.2187 0 15.205 0 12C0 8.79396 1.24903 5.7812 3.51565 3.51465C5.7812 1.24803 8.79489 0 12 0C15.206 0 18.2187 1.24803 20.4863 3.51465C22.7519 5.78126 24 8.79396 24 12C24 15.205 22.7519 18.2187 20.4863 20.4844C18.2187 22.7519 15.206 24 12 24ZM12 1.33297C9.15134 1.33297 6.47259 2.44237 4.45798 4.45698C2.44337 6.47159 1.33397 9.15034 1.33397 12C1.33397 14.8486 2.44337 17.5273 4.45798 19.543C6.47265 21.5567 9.15134 22.6661 12 22.6661C14.8495 22.6661 17.5283 21.5567 19.543 19.543C21.5575 17.5273 22.6669 14.8487 22.6669 12C22.6669 9.15034 21.5575 6.47165 19.543 4.45698C17.5283 2.44237 14.8496 1.33297 12 1.33297Z" fill="#3F5C7E" fill-opacity="0.53"/>
<path d="M31.3339 23.334H7.33394C6.96575 23.334 6.66699 23.6328 6.66699 24V26.666C6.66699 27.0351 6.96581 27.334 7.33394 27.334H31.3339C31.7021 27.334 31.9999 27.0352 31.9999 26.666V24C31.9999 23.6328 31.7021 23.334 31.3339 23.334Z" fill="#656D78"/>
<path d="M11.334 20.666C10.2304 20.666 9.33398 21.5644 9.33398 22.666V28C9.33398 29.1035 10.2304 30 11.334 30C12.4365 30 13.334 29.1035 13.334 28V22.666C13.334 21.5644 12.4365 20.666 11.334 20.666Z" fill="#DA4453"/>
<path d="M14.667 18.666C13.5645 18.666 12.667 19.5644 12.667 20.666V30C12.667 31.1035 13.5645 32 14.667 32C15.7696 32 16.667 31.1035 16.667 30V20.666C16.667 19.5644 15.7696 18.666 14.667 18.666Z" fill="#ED5564"/>
<path d="M27.3339 20.666C26.2304 20.666 25.334 21.5644 25.334 22.666V28C25.334 29.1035 26.2304 30 27.3339 30C28.4365 30 29.334 29.1035 29.334 28V22.666C29.334 21.5644 28.4364 20.666 27.3339 20.666Z" fill="#DA4453"/>
<path d="M24 18.666C22.8975 18.666 22 19.5644 22 20.666V30C22 31.1035 22.8975 32 24 32C25.1036 32 26 31.1035 26 30V20.666C26 19.5644 25.1036 18.666 24 18.666Z" fill="#ED5564"/>
<path d="M32 24.666C31.8301 24.666 31.6592 24.7323 31.5293 24.8613C31.2686 25.123 31.2686 25.5449 31.5293 25.8047C31.6592 25.9355 31.8301 26 32 26V24.666Z" fill="#434A54"/>
<path d="M6.66699 24.666V26C6.83787 26 7.00781 25.9355 7.13863 25.8047C7.39838 25.5449 7.39838 25.123 7.13863 24.8613C7.00781 24.7324 6.83787 24.666 6.66699 24.666Z" fill="#434A54"/>
</g>
<defs>
<clipPath id="clip0_274_624">
<rect width="32" height="32" fill="white"/>
</clipPath>
</defs>
</svg>
